<?xml version="1.0" encoding="UTF-8"?>
<svg width="126px" height="33px" viewBox="0 0 126 33" version="1.1" xmlns="http://www.w3.org/2000/svg" xmlns:xlink="http://www.w3.org/1999/xlink">
    <!-- Generator: Sketch 53.2 (72643) - https://sketchapp.com -->
    <title>Group 14</title>
    <desc>Created with Sketch.</desc>
    <defs>
        <polygon id="path-1" points="0 0.463716356 25.5543614 0.463716356 25.5543614 32.7327147 0 32.7327147"></polygon>
        <polygon id="path-3" points="0 33 127 33 127 0 0 0"></polygon>
    </defs>
    <g id="Symbols" stroke="none" stroke-width="1" fill="none" fill-rule="evenodd">
        <g id="Nav1" transform="translate(-123.000000, -31.000000)">
            <g id="Group-14" transform="translate(123.000000, 31.000000)">
                <g id="Group-3">
                    <mask id="mask-2" fill="white">
                        <use xlink:href="#path-1"></use>
                    </mask>
                    <g id="Clip-2"></g>
                    <path d="M0,22.454578 L6.1805197,22.454578 C6.61582541,26.1813573 8.75060292,27.6584303 13.1898998,27.6584303 C16.413626,27.6584303 19.2424287,26.5305084 19.2424287,23.6691057 C19.2424287,20.6324455 16.282213,20.0241588 11.5349168,18.9398808 C5.96286685,17.683755 0.870611413,16.2066821 0.870611413,9.74670406 C0.870611413,3.62973978 5.8759426,0.463511775 12.7997673,0.463511775 C19.8091474,0.463511775 24.3346841,3.89160313 24.815163,10.1347255 L18.7626342,10.1347255 C18.4135683,7.01350531 15.9783203,5.44982648 12.7545941,5.44982648 C9.35907269,5.44982648 7.14079314,6.88189169 7.14079314,9.09545536 C7.14079314,11.6131624 9.31732167,12.3482892 13.9332048,13.3473252 C20.3313774,14.7337007 25.5543614,16.2516898 25.5543614,22.9285234 C25.5543614,29.2207452 20.462106,32.7327147 13.4527259,32.7327147 C5.00601562,32.7327147 0.217652853,29.0045716 0,22.454578" id="Fill-1" fill="#0A284C" mask="url(#mask-2)"></path>
                </g>
                <path d="M28,10.4289096 L31.1306434,10.4289096 L31.1306434,5 L36.9921113,5 L36.9921113,10.4289096 L40.8669581,10.4289096 L40.8669581,14.3802831 L36.9921113,14.3802831 L36.9921113,26.3262317 C36.9921113,27.9957094 37.9157827,28.5673916 39.2371942,28.5673916 C39.9862481,28.5673916 41,28.5218228 41,28.5218228 L41,32.9136953 C41,32.9136953 39.63632,33 37.2540376,33 C34.3444379,33 31.1306434,31.8607782 31.1306434,27.5980175 L31.1306434,14.3802831 L28,14.3802831 L28,10.4289096 Z" id="Fill-4" fill="#0A284C"></path>
                <path d="M59.8208272,21 C59.8208272,16.5727547 57.712995,13.5602228 54,13.5602228 C50.2370197,13.5602228 48.1791728,16.5727547 48.1791728,21 C48.1791728,25.4272453 50.2370197,28.3931307 54,28.3931307 C57.712995,28.3931307 59.8208272,25.4272453 59.8208272,21 M42,21 C42,14.2258065 46.8788501,9 54,9 C61.1176298,9 66,14.2258065 66,21 C66,27.775586 61.1176298,33 54,33 C46.8788501,33 42,27.775586 42,21" id="Fill-6" fill="#0A284C"></path>
                <path d="M73.8307485,13.9004544 L73.9644588,13.9004544 C75.3463651,11.3301121 76.904685,10 79.5760905,10 C80.2439418,10 80.6429725,10.0425023 81,10.1755832 L81,15.4507422 L80.8655897,15.4507422 C76.904685,15.050106 74.0526656,17.1313238 74.0526656,21.9187519 L74.0526656,33 L68,33 L68,10.2640715 L73.8307485,10.2640715 L73.8307485,13.9004544 Z" id="Fill-8" fill="#0A284C"></path>
                <path d="M84,10.609994 L89.7611471,10.609994 L89.7611471,13.6229117 L89.8939689,13.6229117 C91.1267216,11.5678699 93.3258915,10 96.4513553,10 C99.3111754,10 101.598201,11.5678699 102.69744,13.9282518 L102.785297,13.9282518 C104.3252,11.4814141 106.702849,10 109.562669,10 C114.3152,10 117,13.053401 117,17.940901 L117,33 L111.015408,33 L111.015408,18.9454356 C111.015408,16.4142005 109.737689,15.1050119 107.537828,15.1050119 C105.030124,15.1050119 103.490913,17.0283115 103.490913,19.9952566 L103.490913,33 L97.5056286,33 L97.5056286,18.9454356 C97.5056286,16.4142005 96.2313691,15.1050119 94.0315075,15.1050119 C91.6116596,15.1050119 89.9845922,17.0283115 89.9845922,19.9952566 L89.9845922,33 L84,33 L84,10.609994 Z" id="Fill-10" fill="#0A284C"></path>
                <mask id="mask-4" fill="white">
                    <use xlink:href="#path-3"></use>
                </mask>
                <g id="Clip-13"></g>
                <polygon id="Fill-12" fill="#0A284C" mask="url(#mask-4)" points="120 32 126 32 126 26 120 26"></polygon>
            </g>
        </g>
    </g>
</svg>